<?xml version="1.0" encoding="utf-8"?>
<!-- Generator: Adobe Illustrator 16.0.0, SVG Export Plug-In . SVG Version: 6.00 Build 0)  -->
<!DOCTYPE svg PUBLIC "-//W3C//DTD SVG 1.1//EN" "http://www.w3.org/Graphics/SVG/1.1/DTD/svg11.dtd">
<svg version="1.1" id="圖層_1" xmlns="http://www.w3.org/2000/svg" xmlns:xlink="http://www.w3.org/1999/xlink" x="0px" y="0px"
	 width="200px" height="50px" viewBox="0 0 200 50" enable-background="new 0 0 200 50" xml:space="preserve">
<g>
	<g>
		<path fill="#4D4D4D" d="M10.304,28.923c-1.059,0-1.588-0.53-1.588-1.588V24.98H3.496c-0.889,0-1.333-0.444-1.333-1.333
			c0-0.889,0.444-1.333,1.333-1.333h5.219v-1.446H5.425c-0.548,0-0.993-0.17-1.333-0.511s-0.511-0.785-0.511-1.333V14.4
			c0-0.548,0.17-0.993,0.511-1.333s0.785-0.511,1.333-0.511h4.908h4.907c0.548,0,0.993,0.17,1.333,0.511s0.511,0.785,0.511,1.333
			v4.624c0,0.548-0.17,0.993-0.511,1.333s-0.785,0.511-1.333,0.511h-3.347v1.446h5.163c0.888,0,1.333,0.445,1.333,1.333
			c0,0.889-0.445,1.333-1.333,1.333h-5.163v2.354C11.893,28.394,11.363,28.923,10.304,28.923z M3.496,11.365
			c-0.87,0-1.305-0.435-1.305-1.305c0-0.87,0.435-1.305,1.305-1.305h2.156C5.595,8.358,5.491,7.933,5.34,7.479
			c-0.132-0.359,0-0.567,0.397-0.624h0.085H4.148c-0.851,0-1.276-0.426-1.276-1.276c0-0.851,0.426-1.277,1.276-1.277h4.567V4.075
			c0-1.059,0.529-1.589,1.588-1.589s1.589,0.53,1.589,1.589v0.227h4.708c0.851,0,1.276,0.426,1.276,1.277
			c0,0.851-0.425,1.276-1.276,1.276h-1.22l0.312,0.057c0.094,0.038,0.113,0.095,0.057,0.17c-0.227,0.34-0.529,0.813-0.908,1.418
			c-0.076,0.114-0.132,0.199-0.17,0.255h3.063c2.137-1.21,3.971-2.761,5.503-4.652c0.567-0.775,1.314-0.983,2.241-0.624
			c1.229,0.473,1.428,1.248,0.596,2.326c-1.324,1.608-2.855,3.063-4.595,4.369c-0.416,0.284-0.856,0.397-1.319,0.34
			c-0.464-0.057-0.865-0.274-1.206-0.652c-0.152-0.151-0.378-0.359-0.681-0.624V10.4c0,0.643-0.322,0.965-0.965,0.965h-7.091H3.496z
			 M6.645,15.762h7.233v-0.709c0-0.359-0.18-0.539-0.539-0.539h-3.092H7.326c-0.454,0-0.681,0.227-0.681,0.681V15.762z M7.184,18.91
			h6.014c0.454,0,0.681-0.227,0.681-0.681v-0.596h-3.631H6.645v0.737C6.645,18.731,6.824,18.91,7.184,18.91z M8.176,8.755h3.801
			l-0.113-0.028c0.34-0.851,0.576-1.475,0.709-1.872h-2.298H8.006c0.227,0.51,0.387,1.049,0.482,1.617
			C8.526,8.624,8.45,8.718,8.262,8.755H8.176z M19.097,28.469c-0.416-0.038-0.813-0.274-1.191-0.709
			c-0.492-0.567-0.671-1.068-0.539-1.503c0.132-0.397,0.548-0.775,1.248-1.134c2.477-1.513,4.425-3.271,5.843-5.276
			c0.548-0.889,1.323-1.144,2.326-0.766c1.172,0.454,1.428,1.22,0.766,2.297c-0.964,1.362-2.033,2.591-3.206,3.688
			c-1.21,1.154-2.496,2.156-3.857,3.007C19.958,28.375,19.495,28.507,19.097,28.469z M20.374,18.683
			c-0.378,0-0.756-0.188-1.134-0.567c-0.511-0.511-0.729-0.955-0.652-1.333c0.075-0.378,0.425-0.766,1.049-1.163
			c1.74-1.172,3.205-2.458,4.396-3.857c0.548-0.719,1.267-0.889,2.156-0.511c1.153,0.492,1.352,1.22,0.596,2.184
			c-0.624,0.757-1.428,1.589-2.411,2.496c-0.908,0.851-1.844,1.617-2.808,2.298C21.111,18.551,20.714,18.703,20.374,18.683z"/>
		<path fill="#4D4D4D" d="M36.23,28.895c-1.116,0-1.673-0.558-1.673-1.674V14.429c-0.454,0.548-0.813,0.974-1.078,1.276
			c-0.586,0.586-1.102,0.865-1.546,0.836c-0.444-0.028-0.855-0.401-1.234-1.12c-0.303-0.567-0.421-1.064-0.354-1.489
			c0.066-0.425,0.335-0.855,0.809-1.291c2.307-2.307,4.198-5.049,5.673-8.226c0.435-1.04,1.191-1.39,2.27-1.05
			c1.153,0.397,1.484,1.135,0.993,2.213c-0.775,1.626-1.503,2.988-2.184,4.084v9.616v7.942
			C37.904,28.337,37.346,28.895,36.23,28.895z M47.491,28.611c-1.777,0-2.983-0.354-3.617-1.064c-0.634-0.709-0.95-2.065-0.95-4.07
			V4.869c0-1.115,0.567-1.673,1.702-1.673c1.116,0,1.673,0.558,1.673,1.673v8.028c2.061-1.21,3.971-2.497,5.73-3.858
			c0.492-0.397,0.94-0.567,1.348-0.511c0.406,0.057,0.822,0.34,1.248,0.851c0.425,0.511,0.61,0.974,0.553,1.39
			c-0.057,0.416-0.359,0.813-0.908,1.191c-2.25,1.438-4.907,2.903-7.971,4.397v7.148c0,0.833,0.09,1.367,0.27,1.603
			c0.18,0.237,0.6,0.355,1.262,0.355h4.142c0.397,0,0.699-0.09,0.908-0.27c0.208-0.18,0.369-0.506,0.482-0.979
			c0.094-0.946,0.321-1.692,0.681-2.241c0.416-0.699,0.945-0.898,1.588-0.596c0.416,0.189,0.699,0.624,0.851,1.305
			c0.132,0.529,0.16,1.106,0.085,1.73c-0.265,1.532-0.709,2.61-1.333,3.234c-0.643,0.643-1.627,0.964-2.95,0.964h-2.411H47.491z"/>
		<path fill="#4D4D4D" d="M61.05,7.677c-0.946,0-1.418-0.482-1.418-1.446c0-0.945,0.473-1.418,1.418-1.418h8.992V4.104
			c0-1.116,0.567-1.674,1.702-1.674c1.116,0,1.673,0.558,1.673,1.674v0.709h9.361c0.945,0,1.418,0.473,1.418,1.418
			c0,0.964-0.473,1.446-1.418,1.446H71.914H61.05z M62.412,28.952c-1.097,0-1.645-0.539-1.645-1.617v-9.304
			c0-0.548,0.17-0.993,0.511-1.333c0.34-0.34,0.784-0.511,1.333-0.511h9.417h9.417c0.548,0,0.993,0.17,1.333,0.511
			s0.511,0.785,0.511,1.333v7.347c0,0.813-0.095,1.437-0.284,1.873c-0.227,0.491-0.605,0.86-1.135,1.106
			c-0.586,0.284-1.418,0.454-2.496,0.511c-0.662,0.019-1.206-0.119-1.631-0.412c-0.425-0.293-0.695-0.695-0.808-1.205
			c-0.019-0.057-0.057-0.156-0.114-0.298c-0.057-0.142-0.104-0.251-0.142-0.327h-8.311c-0.549,0-0.993-0.17-1.333-0.51
			c-0.34-0.34-0.51-0.785-0.51-1.333v-2.666c0-0.548,0.17-0.993,0.51-1.333c0.341-0.34,0.785-0.51,1.333-0.51h7.035
			c0.548,0,0.993,0.17,1.333,0.51s0.511,0.785,0.511,1.333v3.659c1.078,0.038,1.787,0.038,2.127,0
			c0.208-0.019,0.35-0.057,0.425-0.114s0.114-0.17,0.114-0.34v-5.645c0-0.454-0.227-0.681-0.681-0.681H64.709
			c-0.454,0-0.681,0.227-0.681,0.681v7.659C64.029,28.413,63.49,28.952,62.412,28.952z M66.099,14.996
			c-0.548,0-0.993-0.17-1.333-0.51s-0.511-0.785-0.511-1.333v-2.553c0-0.548,0.17-0.993,0.511-1.333s0.785-0.511,1.333-0.511h11.63
			c0.548,0,0.993,0.17,1.333,0.511s0.51,0.785,0.51,1.333v2.553c0,0.549-0.17,0.993-0.51,1.333s-0.785,0.51-1.333,0.51h-5.815
			H66.099z M68.113,12.727h3.688h3.688c0.454,0,0.681-0.227,0.681-0.681v-0.369c0-0.454-0.227-0.681-0.681-0.681h-7.375
			c-0.454,0-0.681,0.227-0.681,0.681v0.369C67.433,12.5,67.659,12.727,68.113,12.727z M70.127,24.356h1.73h2.439v-1.163
			c0-0.454-0.227-0.681-0.681-0.681h-3.489c-0.454,0-0.681,0.227-0.681,0.681v0.482C69.446,24.129,69.673,24.356,70.127,24.356z"/>
		<path fill="#4D4D4D" d="M100.223,28.952c-1.173,0-1.759-0.586-1.759-1.759v-7.091h-7.857c-0.549,0-0.993-0.17-1.333-0.511
			c-0.34-0.34-0.51-0.784-0.51-1.333V9.209c0-0.548,0.17-0.993,0.51-1.333c0.341-0.34,0.785-0.511,1.333-0.511h7.857V4.217
			c0-1.172,0.586-1.759,1.759-1.759c1.172,0,1.759,0.586,1.759,1.759v3.148h4.936h3.092c0.548,0,0.993,0.17,1.333,0.511
			c0.34,0.34,0.51,0.785,0.51,1.333v9.049c0,0.549-0.17,0.993-0.51,1.333c-0.341,0.341-0.785,0.511-1.333,0.511h-8.027v7.091
			C101.981,28.365,101.395,28.952,100.223,28.952z M92.819,16.783h5.645v-6.099h-3.177h-2.468c-0.454,0-0.681,0.227-0.681,0.681
			v4.737C92.139,16.556,92.366,16.783,92.819,16.783z M101.981,16.783h5.673c0.454,0,0.681-0.227,0.681-0.681v-4.737
			c0-0.454-0.227-0.681-0.681-0.681h-2.497h-3.177V16.783z"/>
		<path fill="#4D4D4D" d="M118.519,27.931c-0.548,0-0.993-0.17-1.333-0.511s-0.511-0.785-0.511-1.333V5.238
			c0-0.548,0.17-0.993,0.511-1.333s0.785-0.511,1.333-0.511h10.184h10.183c0.548,0,0.993,0.17,1.333,0.511s0.511,0.785,0.511,1.333
			v20.849c0,0.548-0.17,0.993-0.511,1.333s-0.785,0.511-1.333,0.511H118.519z M120.448,25.179h16.338
			c0.454,0,0.681-0.227,0.681-0.681V6.855c0-0.454-0.227-0.681-0.681-0.681h-8.169h-8.169c-0.454,0-0.681,0.227-0.681,0.681v17.644
			C119.767,24.952,119.994,25.179,120.448,25.179z M121.639,14.287c-0.605,0-0.907-0.312-0.907-0.936
			c0-0.605,0.302-0.908,0.907-0.908h5.503v-0.851h-2.297c-0.549,0-0.993-0.17-1.333-0.51C123.17,10.741,123,10.297,123,9.748V8.926
			c0-0.548,0.17-0.993,0.511-1.333c0.34-0.34,0.784-0.51,1.333-0.51h7.517c0.548,0,0.993,0.17,1.333,0.51s0.511,0.785,0.511,1.333
			v0.822c0,0.549-0.17,0.993-0.511,1.333c-0.34,0.34-0.785,0.51-1.333,0.51h-2.411v0.851h5.758c0.605,0,0.907,0.303,0.907,0.908
			c0,0.624-0.302,0.936-0.907,0.936h-7.035H121.639z M123.852,24.243c-0.549,0-0.993-0.17-1.333-0.511s-0.51-0.785-0.51-1.333
			v-5.446c0-0.548,0.17-0.993,0.51-1.333c0.34-0.34,0.785-0.51,1.333-0.51h9.502c0.548,0,0.993,0.17,1.333,0.51
			c0.34,0.341,0.511,0.785,0.511,1.333v5.446c0,0.548-0.17,0.993-0.511,1.333s-0.785,0.511-1.333,0.511h-4.766H123.852z
			 M125.241,22.371h6.581c0.454,0,0.681-0.227,0.681-0.681v-4.056c0-0.454-0.227-0.681-0.681-0.681h-3.291h-3.291
			c-0.454,0-0.681,0.227-0.681,0.681v4.056C124.561,22.144,124.788,22.371,125.241,22.371z M126.121,9.918h4.709
			c0.378,0,0.567-0.189,0.567-0.567V9.266c0-0.321-0.161-0.482-0.482-0.482h-2.411h-2.298c-0.378,0-0.567,0.189-0.567,0.567v0.085
			C125.639,9.758,125.799,9.918,126.121,9.918z M127.596,21.548c-1.248,0-1.872-0.633-1.872-1.9c0-1.248,0.624-1.872,1.872-1.872
			h1.957c1.248,0,1.872,0.624,1.872,1.872c0,1.267-0.624,1.9-1.872,1.9h-0.993H127.596z M127.851,20.13h1.22
			c0.302,0,0.454-0.151,0.454-0.454v-0.085c0-0.245-0.123-0.369-0.369-0.369h-0.652h-0.596c-0.284,0-0.425,0.142-0.425,0.426v0.113
			C127.482,20.007,127.605,20.13,127.851,20.13z"/>
		<path fill="#4D4D4D" d="M145.551,18.938c-0.776,0-1.163-0.397-1.163-1.191c0-0.775,0.387-1.163,1.163-1.163h9.673v-1.021h-7.829
			c-0.681,0-1.021-0.34-1.021-1.021s0.34-1.021,1.021-1.021h7.829v-0.993h-7.262c-0.643,0-0.964-0.331-0.964-0.993
			c0-0.643,0.321-0.964,0.964-0.964h7.262V9.493h-9.645c-0.775,0-1.163-0.387-1.163-1.163s0.388-1.163,1.163-1.163h9.645v-1.05
			h-6.978c-0.643,0-0.964-0.331-0.964-0.993c0-0.643,0.321-0.964,0.964-0.964h6.978V4.019c0-1.097,0.557-1.646,1.673-1.646
			c1.097,0,1.645,0.549,1.645,1.646V4.16h6.014c0.548,0,0.993,0.17,1.333,0.511c0.341,0.34,0.511,0.785,0.511,1.333v1.163h2.042
			c0.775,0,1.163,0.388,1.163,1.163s-0.388,1.163-1.163,1.163H166.4v1.617c0,0.416-0.127,0.756-0.383,1.021
			c-0.255,0.265-0.601,0.397-1.036,0.397h-6.439v0.993h7.971c0.681,0,1.021,0.34,1.021,1.021s-0.34,1.021-1.021,1.021h-7.971v1.021
			h9.9c0.775,0,1.163,0.388,1.163,1.163c0,0.794-0.388,1.191-1.163,1.191h-11.46H145.551z M149.75,28.186
			c-0.549,0-0.993-0.17-1.333-0.511s-0.51-0.785-0.51-1.333v-4.681c0-0.548,0.17-0.993,0.51-1.333s0.785-0.511,1.333-0.511h7.46
			h7.489c0.548,0,0.993,0.17,1.333,0.511s0.511,0.785,0.511,1.333v4.681c0,0.548-0.17,0.993-0.511,1.333s-0.785,0.511-1.333,0.511
			H149.75z M151.139,22.995h6.014h6.014v-0.596c0-0.284-0.142-0.426-0.426-0.426H151.82c-0.454,0-0.681,0.227-0.681,0.681V22.995z
			 M151.593,26.059h10.892c0.454,0,0.681-0.227,0.681-0.681v-0.425h-6.014h-6.014v0.652
			C151.139,25.907,151.291,26.059,151.593,26.059z M158.542,7.167h4.539V6.543c0-0.284-0.142-0.426-0.425-0.426h-1.844h-2.27V7.167z
			 M158.542,10.571h3.858c0.454,0,0.681-0.227,0.681-0.681V9.493h-2.269h-2.27V10.571z"/>
		<path fill="#4D4D4D" d="M175.278,28.895c-0.964,0-1.446-0.473-1.446-1.418V11.024l-0.028,0.029
			c-0.208-0.322-0.549-0.7-1.021-1.135c-0.322-0.265-0.482-0.563-0.482-0.894c0-0.331,0.17-0.647,0.51-0.95
			c1.286-1.267,2.373-2.751,3.262-4.454c0.151-0.321,0.411-0.591,0.78-0.808c0.369-0.217,0.761-0.327,1.177-0.327h0.851
			c0.605,0,1.125,0.199,1.56,0.596c1.418,1.324,2.563,2.572,3.432,3.745V6.061c0-0.397,0.199-0.596,0.596-0.596h4.681V4.132
			c0-1.097,0.548-1.646,1.645-1.646s1.646,0.549,1.646,1.646v1.333h3.829c0.548,0,0.993,0.17,1.333,0.511
			c0.341,0.34,0.511,0.785,0.511,1.333v1.588c0,0.549-0.17,0.993-0.511,1.333c-0.34,0.34-0.785,0.51-1.333,0.51h-0.142v5.106
			c0,0.549-0.17,0.993-0.511,1.333c-0.34,0.34-0.785,0.51-1.333,0.51h-5.957v1.617h4.51h2.667c0.548,0,0.993,0.17,1.333,0.51
			s0.511,0.785,0.511,1.333v4.566c0,0.549-0.17,0.993-0.511,1.333s-0.785,0.511-1.333,0.511h-8.368c-0.549,0-0.993-0.17-1.333-0.511
			s-0.511-0.785-0.511-1.333V10.741h-0.794c-0.417,0-0.625-0.208-0.625-0.624V7.763l-0.907,0.993
			c-0.227,0.265-0.468,0.388-0.724,0.369c-0.255-0.019-0.468-0.17-0.638-0.454c-0.038-0.057-0.095-0.137-0.17-0.241
			c-0.076-0.104-0.133-0.185-0.17-0.241v0.851c0,0.435-0.218,0.652-0.652,0.652h-3.489c-0.643,0-0.964-0.321-0.964-0.964V8.642
			c-0.605,0.737-1.305,1.465-2.099,2.184h7.148c0.548,0,0.993,0.17,1.333,0.51c0.34,0.341,0.511,0.785,0.511,1.333v5.106
			c0,0.548-0.17,0.993-0.511,1.333s-0.785,0.511-1.333,0.511h-4.51v1.22h5.163c0.832,0,1.248,0.416,1.248,1.248
			s-0.416,1.248-1.248,1.248h-5.163v1.191h5.56c0.851,0,1.276,0.425,1.276,1.276c0,0.87-0.425,1.305-1.276,1.305h-5.56v0.369
			C176.697,28.422,176.224,28.895,175.278,28.895z M176.697,14.173h1.815h1.815v-0.652c0-0.321-0.161-0.482-0.482-0.482h-3.148
			V14.173z M176.697,17.463h2.95c0.454,0,0.681-0.227,0.681-0.681v-0.51h-1.815h-1.815V17.463z M177.094,7.451h3.659
			c-0.208-0.284-0.558-0.709-1.049-1.276c-0.378-0.454-0.738-0.832-1.078-1.135C178.19,5.872,177.68,6.675,177.094,7.451z
			 M186.88,10.23h4.028h4.057V8.812c0-0.454-0.227-0.681-0.681-0.681h-6.723c-0.454,0-0.681,0.227-0.681,0.681V10.23z
			 M188.327,15.024h2.354h1.673c0.454,0,0.681-0.227,0.681-0.681v-1.475h-4.708V15.024z M189.007,24.753h2.27h2.297
			c0.454,0,0.681-0.227,0.681-0.681v-1.305c0-0.454-0.227-0.681-0.681-0.681h-5.248v1.985
			C188.327,24.527,188.554,24.753,189.007,24.753z"/>
	</g>
</g>
<g>
	<g>
		<path fill="#737373" d="M3.31,45.041c-0.691,0-1.036-0.345-1.036-1.036V35.59c0-0.271,0.084-0.49,0.252-0.658
			s0.387-0.252,0.658-0.252H4.08h1.806c2.594,0,3.892,1.045,3.892,3.136c0,1.475-0.658,2.469-1.974,2.982l1.834,3.206
			c0.177,0.308,0.21,0.558,0.098,0.749c-0.112,0.191-0.345,0.287-0.7,0.287H8.56c-0.196,0-0.38-0.051-0.553-0.154
			c-0.173-0.103-0.306-0.238-0.399-0.406l-1.82-3.36H4.346v2.884C4.346,44.695,4,45.041,3.31,45.041z M4.346,39.482H5.69
			c1.372,0,2.058-0.555,2.058-1.666c0-0.541-0.177-0.933-0.532-1.176c-0.327-0.215-0.835-0.322-1.526-0.322H4.346V37.9V39.482z"/>
		<path fill="#737373" d="M15.196,45.236c-1.12,0-2.039-0.364-2.758-1.092c-0.756-0.747-1.134-1.75-1.134-3.01
			c0-1.223,0.373-2.231,1.12-3.024c0.709-0.737,1.554-1.106,2.534-1.106c1.045,0,1.862,0.355,2.45,1.064
			c0.55,0.672,0.826,1.568,0.826,2.688c0,0.168-0.009,0.364-0.028,0.588c-0.019,0.093-0.075,0.175-0.168,0.245
			c-0.093,0.07-0.201,0.105-0.322,0.105h-2.002h-2.408c0.084,0.635,0.322,1.12,0.714,1.456c0.373,0.336,0.858,0.504,1.456,0.504
			c0.382,0,0.747-0.07,1.092-0.21c0.448-0.233,0.793-0.126,1.036,0.322c0.214,0.411,0.14,0.723-0.224,0.938
			C16.67,45.059,15.942,45.236,15.196,45.236z M13.278,40.336h1.596h1.596c0-0.55-0.122-0.975-0.364-1.274
			c-0.252-0.308-0.625-0.462-1.12-0.462c-0.429,0-0.798,0.145-1.106,0.434C13.553,39.352,13.353,39.786,13.278,40.336z"/>
		<path fill="#737373" d="M22,45.236c-0.691,0-1.251-0.219-1.68-0.658c-0.429-0.438-0.644-0.994-0.644-1.666
			c0-0.84,0.357-1.491,1.071-1.953c0.714-0.462,1.859-0.777,3.437-0.945c-0.038-0.905-0.481-1.358-1.33-1.358
			c-0.43,0-0.901,0.117-1.414,0.35c-0.495,0.252-0.868,0.149-1.12-0.308c-0.243-0.439-0.154-0.775,0.266-1.008
			c0.887-0.457,1.769-0.686,2.646-0.686c0.989,0,1.738,0.292,2.247,0.875c0.508,0.583,0.763,1.444,0.763,2.583v2.296v1.442
			c0,0.56-0.299,0.84-0.896,0.84c-0.522,0-0.831-0.243-0.924-0.728l-0.014-0.112h-0.042C23.563,44.891,22.774,45.236,22,45.236z
			 M22.672,43.626c0.495,0,0.999-0.256,1.512-0.77v-1.582c-0.887,0.122-1.55,0.308-1.988,0.56c-0.374,0.243-0.56,0.546-0.56,0.91
			C21.636,43.333,21.981,43.626,22.672,43.626z"/>
		<path fill="#737373" d="M31.239,45.236c-0.98,0-1.759-0.366-2.338-1.099c-0.579-0.733-0.868-1.734-0.868-3.003
			c0-1.232,0.336-2.24,1.008-3.024c0.635-0.737,1.395-1.106,2.282-1.106c0.41,0,0.784,0.08,1.12,0.238
			c0.271,0.121,0.56,0.327,0.868,0.616l-0.084-1.232v-1.736c0-0.681,0.345-1.022,1.036-1.022c0.681,0,1.022,0.341,1.022,1.022v4.564
			v4.76c0,0.271-0.08,0.476-0.238,0.616s-0.378,0.21-0.658,0.21c-0.504,0-0.808-0.233-0.91-0.7l-0.028-0.112H33.41
			C32.719,44.9,31.996,45.236,31.239,45.236z M31.771,43.542c0.56,0,1.045-0.271,1.456-0.812v-1.722v-1.722
			c-0.43-0.392-0.915-0.588-1.456-0.588c-0.467,0-0.85,0.205-1.148,0.616c-0.317,0.439-0.476,1.036-0.476,1.792
			c0,0.803,0.14,1.41,0.42,1.82C30.848,43.337,31.249,43.542,31.771,43.542z"/>
		<path fill="#737373" d="M38.674,35.94c-0.355,0-0.649-0.105-0.882-0.315s-0.35-0.478-0.35-0.805c0-0.336,0.116-0.606,0.35-0.812
			c0.233-0.205,0.527-0.308,0.882-0.308c0.354,0,0.646,0.103,0.875,0.308c0.229,0.206,0.343,0.476,0.343,0.812
			c0,0.317-0.114,0.583-0.343,0.798C39.32,35.833,39.028,35.94,38.674,35.94z M38.66,45.041c-0.681,0-1.022-0.341-1.022-1.022
			v-5.796c0-0.681,0.341-1.022,1.022-1.022s1.022,0.341,1.022,1.022v2.898v2.898C39.682,44.7,39.341,45.041,38.66,45.041z"/>
		<path fill="#737373" d="M43.055,45.041c-0.681,0-1.022-0.341-1.022-1.022v-2.898v-3.08c0-0.56,0.294-0.84,0.882-0.84
			c0.532,0,0.831,0.252,0.896,0.756l0.042,0.28h0.056c0.84-0.821,1.689-1.232,2.548-1.232c1.615,0,2.422,1.05,2.422,3.15v3.864
			c0,0.681-0.341,1.022-1.022,1.022c-0.691,0-1.036-0.341-1.036-1.022v-3.612c0-0.597-0.086-1.02-0.259-1.267
			c-0.172-0.247-0.455-0.371-0.847-0.371c-0.299,0-0.579,0.075-0.84,0.224c-0.206,0.121-0.472,0.341-0.798,0.658v4.368
			C44.077,44.7,43.736,45.041,43.055,45.041z"/>
		<path fill="#737373" d="M53.905,48.442c-0.971,0-1.745-0.163-2.324-0.49c-0.635-0.355-0.952-0.863-0.952-1.526
			c0-0.663,0.374-1.204,1.12-1.624v-0.07c-0.476-0.308-0.714-0.747-0.714-1.316c0-0.28,0.088-0.555,0.266-0.826
			c0.149-0.252,0.35-0.466,0.602-0.644v-0.056c-0.289-0.215-0.527-0.49-0.714-0.826c-0.215-0.382-0.322-0.789-0.322-1.218
			c0-0.887,0.317-1.591,0.952-2.114c0.597-0.485,1.335-0.728,2.212-0.728c0.41,0,0.802,0.065,1.176,0.196h1.414h0.658
			c0.504,0,0.756,0.252,0.756,0.756s-0.252,0.756-0.756,0.756h-0.588c0.243,0.308,0.364,0.705,0.364,1.19
			c0,0.85-0.294,1.512-0.882,1.988c-0.551,0.448-1.265,0.672-2.142,0.672c-0.308,0-0.644-0.061-1.008-0.182
			c-0.224,0.178-0.336,0.401-0.336,0.672c0,0.215,0.088,0.373,0.266,0.476c0.196,0.112,0.518,0.168,0.966,0.168h1.33
			c1.941,0,2.912,0.654,2.912,1.96c0,0.802-0.383,1.465-1.148,1.988C56.229,48.177,55.193,48.442,53.905,48.442z M54.213,47.141
			c0.588,0,1.069-0.112,1.442-0.336c0.364-0.215,0.546-0.481,0.546-0.798c0-0.271-0.112-0.457-0.336-0.56
			c-0.196-0.093-0.518-0.14-0.966-0.14h-0.952c-0.429,0-0.793-0.038-1.092-0.112c-0.345,0.28-0.518,0.583-0.518,0.91
			s0.168,0.581,0.504,0.763C53.178,47.049,53.635,47.141,54.213,47.141z M54.032,41.289c0.354,0,0.644-0.126,0.868-0.378
			c0.233-0.261,0.35-0.616,0.35-1.064c0-0.448-0.117-0.803-0.35-1.064c-0.215-0.252-0.504-0.378-0.868-0.378
			c-0.364,0-0.658,0.126-0.882,0.378c-0.233,0.261-0.35,0.616-0.35,1.064c0,0.448,0.122,0.803,0.364,1.064
			C53.388,41.163,53.677,41.289,54.032,41.289z"/>
		<path fill="#737373" d="M65.539,40.854c-0.327,0-0.593-0.112-0.798-0.336c-0.224-0.205-0.336-0.469-0.336-0.791
			s0.109-0.593,0.329-0.812s0.488-0.329,0.805-0.329s0.585,0.11,0.805,0.329c0.219,0.219,0.329,0.488,0.329,0.805
			s-0.109,0.585-0.329,0.805C66.125,40.745,65.856,40.854,65.539,40.854z"/>
		<path fill="#737373" d="M76.347,45.041c-0.177,0-0.334-0.049-0.469-0.147c-0.136-0.098-0.227-0.231-0.273-0.399l-2.688-8.792
			c-0.093-0.308-0.07-0.555,0.07-0.742c0.14-0.187,0.369-0.28,0.686-0.28h0.336c0.233,0,0.438,0.068,0.616,0.203
			c0.177,0.136,0.294,0.315,0.35,0.539l1.176,4.298c0.103,0.364,0.238,0.887,0.406,1.568c0.187,0.775,0.341,1.367,0.462,1.778h0.07
			c0.103-0.373,0.243-0.915,0.42-1.624c0.196-0.756,0.35-1.33,0.462-1.722l1.12-4.2c0.159-0.56,0.522-0.84,1.092-0.84
			c0.812,0,1.101,0.396,0.868,1.19l-2.59,8.456c-0.075,0.215-0.199,0.387-0.371,0.518c-0.173,0.13-0.371,0.196-0.595,0.196h-0.49
			H76.347z"/>
		<path fill="#737373" d="M83.613,35.94c-0.355,0-0.649-0.105-0.882-0.315s-0.35-0.478-0.35-0.805c0-0.336,0.116-0.606,0.35-0.812
			c0.233-0.205,0.527-0.308,0.882-0.308c0.354,0,0.646,0.103,0.875,0.308c0.229,0.206,0.343,0.476,0.343,0.812
			c0,0.317-0.114,0.583-0.343,0.798C84.259,35.833,83.968,35.94,83.613,35.94z M83.599,45.041c-0.681,0-1.022-0.341-1.022-1.022
			v-5.796c0-0.681,0.341-1.022,1.022-1.022s1.022,0.341,1.022,1.022v2.898v2.898C84.621,44.7,84.28,45.041,83.599,45.041z"/>
		<path fill="#737373" d="M89.213,45.236c-0.803,0-1.592-0.224-2.366-0.672c-0.411-0.289-0.467-0.639-0.168-1.05
			c0.159-0.215,0.348-0.336,0.567-0.364c0.219-0.028,0.441,0.033,0.665,0.182c0.457,0.243,0.91,0.364,1.358,0.364
			c0.756,0,1.134-0.275,1.134-0.826c0-0.243-0.149-0.457-0.448-0.644c-0.177-0.121-0.513-0.275-1.008-0.462
			c-0.084-0.028-0.145-0.051-0.182-0.07c-0.635-0.242-1.115-0.508-1.442-0.798c-0.467-0.401-0.7-0.896-0.7-1.484
			c0-0.709,0.266-1.288,0.798-1.736c0.532-0.448,1.236-0.672,2.114-0.672c0.728,0,1.423,0.191,2.086,0.574
			c0.401,0.261,0.443,0.602,0.126,1.022c-0.299,0.42-0.681,0.485-1.148,0.196c-0.364-0.168-0.7-0.252-1.008-0.252
			c-0.336,0-0.598,0.07-0.784,0.21c-0.168,0.131-0.252,0.313-0.252,0.546c0,0.233,0.13,0.43,0.392,0.588
			c0.168,0.103,0.48,0.238,0.938,0.406c0.121,0.047,0.21,0.08,0.266,0.098c0.681,0.261,1.176,0.523,1.484,0.784
			c0.466,0.401,0.7,0.929,0.7,1.582c0,0.719-0.266,1.302-0.798,1.75C90.977,44.994,90.202,45.236,89.213,45.236z"/>
		<path fill="#737373" d="M95.079,35.94c-0.355,0-0.649-0.105-0.882-0.315s-0.35-0.478-0.35-0.805c0-0.336,0.116-0.606,0.35-0.812
			c0.233-0.205,0.527-0.308,0.882-0.308c0.354,0,0.646,0.103,0.875,0.308c0.229,0.206,0.343,0.476,0.343,0.812
			c0,0.317-0.114,0.583-0.343,0.798C95.725,35.833,95.433,35.94,95.079,35.94z M95.064,45.041c-0.681,0-1.022-0.341-1.022-1.022
			v-5.796c0-0.681,0.341-1.022,1.022-1.022s1.022,0.341,1.022,1.022v2.898v2.898C96.086,44.7,95.746,45.041,95.064,45.041z"/>
		<path fill="#737373" d="M101.714,45.236c-1.027,0-1.899-0.359-2.618-1.078c-0.766-0.775-1.148-1.783-1.148-3.024
			c0-1.26,0.382-2.277,1.148-3.052c0.709-0.719,1.582-1.078,2.618-1.078c1.027,0,1.899,0.359,2.618,1.078
			c0.765,0.784,1.148,1.801,1.148,3.052c0,1.241-0.383,2.249-1.148,3.024C103.614,44.877,102.741,45.236,101.714,45.236z
			 M101.714,43.557c0.523,0,0.934-0.219,1.232-0.658c0.29-0.429,0.434-1.02,0.434-1.771c0-0.751-0.145-1.341-0.434-1.771
			c-0.298-0.448-0.709-0.672-1.232-0.672c-0.532,0-0.943,0.224-1.232,0.672c-0.29,0.43-0.434,1.02-0.434,1.771
			c0,0.751,0.145,1.342,0.434,1.771C100.781,43.337,101.192,43.557,101.714,43.557z"/>
		<path fill="#737373" d="M108.364,45.041c-0.681,0-1.022-0.341-1.022-1.022v-2.898v-3.08c0-0.56,0.294-0.84,0.882-0.84
			c0.532,0,0.831,0.252,0.896,0.756l0.042,0.28h0.056c0.84-0.821,1.689-1.232,2.548-1.232c1.615,0,2.422,1.05,2.422,3.15v3.864
			c0,0.681-0.341,1.022-1.022,1.022c-0.691,0-1.036-0.341-1.036-1.022v-3.612c0-0.597-0.086-1.02-0.259-1.267
			c-0.172-0.247-0.455-0.371-0.847-0.371c-0.299,0-0.579,0.075-0.84,0.224c-0.206,0.121-0.472,0.341-0.798,0.658v4.368
			C109.386,44.7,109.045,45.041,108.364,45.041z"/>
		<path fill="#737373" d="M122.35,40.854c-0.327,0-0.593-0.112-0.798-0.336c-0.224-0.205-0.336-0.469-0.336-0.791
			s0.109-0.593,0.329-0.812s0.488-0.329,0.805-0.329s0.585,0.11,0.805,0.329c0.219,0.219,0.329,0.488,0.329,0.805
			s-0.109,0.585-0.329,0.805C122.936,40.745,122.667,40.854,122.35,40.854z"/>
		<path fill="#737373" d="M134.992,45.236c-1.363,0-2.483-0.457-3.36-1.372c-0.924-0.971-1.386-2.289-1.386-3.955
			s0.476-2.999,1.428-3.997c0.905-0.952,2.035-1.428,3.388-1.428c0.905,0,1.736,0.28,2.492,0.84
			c0.364,0.327,0.373,0.695,0.028,1.106c-0.383,0.467-0.816,0.513-1.302,0.14c-0.364-0.205-0.756-0.308-1.176-0.308
			c-0.803,0-1.456,0.317-1.96,0.952c-0.522,0.654-0.784,1.526-0.784,2.618c0,1.12,0.245,2.002,0.735,2.646
			c0.49,0.644,1.146,0.966,1.967,0.966c0.504,0,0.985-0.145,1.442-0.434c0.466-0.401,0.9-0.364,1.302,0.112
			c0.327,0.392,0.303,0.775-0.07,1.148C136.952,44.915,136.038,45.236,134.992,45.236z"/>
		<path fill="#737373" d="M140.956,45.041c-0.681,0-1.022-0.341-1.022-1.022v-2.898v-3.08c0-0.56,0.289-0.84,0.868-0.84
			c0.541,0,0.84,0.257,0.896,0.77l0.056,0.616h0.056c0.28-0.504,0.621-0.896,1.022-1.176c0.392-0.271,0.793-0.406,1.204-0.406
			c0.065,0,0.126,0,0.182,0c0.252,0.056,0.424,0.182,0.518,0.378c0.084,0.187,0.098,0.416,0.042,0.686
			c-0.131,0.588-0.453,0.84-0.966,0.756c-0.009,0-0.019,0-0.028,0c-0.346,0-0.667,0.117-0.966,0.35
			c-0.355,0.262-0.635,0.658-0.84,1.19v3.654C141.978,44.7,141.637,45.041,140.956,45.041z"/>
		<path fill="#737373" d="M149.58,45.236c-1.12,0-2.039-0.364-2.758-1.092c-0.756-0.747-1.134-1.75-1.134-3.01
			c0-1.223,0.373-2.231,1.12-3.024c0.709-0.737,1.554-1.106,2.534-1.106c1.045,0,1.862,0.355,2.45,1.064
			c0.55,0.672,0.826,1.568,0.826,2.688c0,0.168-0.009,0.364-0.028,0.588c-0.019,0.093-0.075,0.175-0.168,0.245
			c-0.093,0.07-0.201,0.105-0.322,0.105h-2.002h-2.408c0.084,0.635,0.322,1.12,0.714,1.456c0.373,0.336,0.858,0.504,1.456,0.504
			c0.382,0,0.747-0.07,1.092-0.21c0.448-0.233,0.793-0.126,1.036,0.322c0.214,0.411,0.14,0.723-0.224,0.938
			C151.055,45.059,150.327,45.236,149.58,45.236z M147.662,40.336h1.596h1.596c0-0.55-0.122-0.975-0.364-1.274
			c-0.252-0.308-0.625-0.462-1.12-0.462c-0.429,0-0.798,0.145-1.106,0.434C147.938,39.352,147.737,39.786,147.662,40.336z"/>
		<path fill="#737373" d="M156.384,45.236c-0.691,0-1.251-0.219-1.68-0.658c-0.429-0.438-0.644-0.994-0.644-1.666
			c0-0.84,0.357-1.491,1.071-1.953c0.714-0.462,1.859-0.777,3.437-0.945c-0.038-0.905-0.481-1.358-1.33-1.358
			c-0.43,0-0.901,0.117-1.414,0.35c-0.495,0.252-0.868,0.149-1.12-0.308c-0.243-0.439-0.154-0.775,0.266-1.008
			c0.887-0.457,1.769-0.686,2.646-0.686c0.989,0,1.738,0.292,2.247,0.875c0.508,0.583,0.763,1.444,0.763,2.583v2.296v1.442
			c0,0.56-0.299,0.84-0.896,0.84c-0.522,0-0.831-0.243-0.924-0.728l-0.014-0.112h-0.042
			C157.947,44.891,157.159,45.236,156.384,45.236z M157.056,43.626c0.495,0,0.999-0.256,1.512-0.77v-1.582
			c-0.887,0.122-1.55,0.308-1.988,0.56c-0.374,0.243-0.56,0.546-0.56,0.91C156.02,43.333,156.365,43.626,157.056,43.626z"/>
		<path fill="#737373" d="M165.736,45.236c-1.717,0-2.576-0.98-2.576-2.94v-3.472h-0.35c-0.504,0-0.756-0.261-0.756-0.784
			c0-0.495,0.238-0.761,0.714-0.798l0.49-0.042l0.154-1.302c0.056-0.532,0.359-0.798,0.91-0.798c0.597,0,0.896,0.285,0.896,0.854
			v1.246h1.12c0.541,0,0.812,0.271,0.812,0.812c0,0.541-0.271,0.812-0.812,0.812h-1.12v1.736v1.736c0,0.877,0.354,1.316,1.064,1.316
			c0.009,0,0.019,0,0.028,0c0.485-0.112,0.789,0.089,0.91,0.602c0.103,0.485-0.047,0.784-0.448,0.896
			C166.417,45.194,166.072,45.236,165.736,45.236z"/>
		<path fill="#737373" d="M169.922,35.94c-0.355,0-0.649-0.105-0.882-0.315s-0.35-0.478-0.35-0.805c0-0.336,0.116-0.606,0.35-0.812
			c0.233-0.205,0.527-0.308,0.882-0.308c0.354,0,0.646,0.103,0.875,0.308c0.229,0.206,0.343,0.476,0.343,0.812
			c0,0.317-0.114,0.583-0.343,0.798C170.568,35.833,170.276,35.94,169.922,35.94z M169.908,45.041c-0.681,0-1.022-0.341-1.022-1.022
			v-5.796c0-0.681,0.341-1.022,1.022-1.022s1.022,0.341,1.022,1.022v2.898v2.898C170.93,44.7,170.589,45.041,169.908,45.041z"/>
		<path fill="#737373" d="M175.592,45.041c-0.364,0-0.607-0.172-0.728-0.518l-2.086-6.132c-0.261-0.793,0.014-1.19,0.826-1.19
			c0.569,0,0.928,0.271,1.078,0.812l0.91,3.094c0.084,0.317,0.214,0.808,0.392,1.47c0.103,0.401,0.182,0.705,0.238,0.91h0.07
			c0.121-0.485,0.313-1.204,0.574-2.156c0.028-0.103,0.047-0.177,0.056-0.224l0.924-3.136c0.149-0.513,0.49-0.77,1.022-0.77
			c0.784,0,1.05,0.373,0.798,1.12l-2.002,6.02c-0.065,0.206-0.189,0.374-0.371,0.504c-0.182,0.13-0.385,0.196-0.609,0.196h-0.448
			H175.592z"/>
		<path fill="#737373" d="M182.521,35.94c-0.355,0-0.649-0.105-0.882-0.315s-0.35-0.478-0.35-0.805c0-0.336,0.116-0.606,0.35-0.812
			c0.233-0.205,0.527-0.308,0.882-0.308c0.354,0,0.646,0.103,0.875,0.308c0.229,0.206,0.343,0.476,0.343,0.812
			c0,0.317-0.114,0.583-0.343,0.798C183.167,35.833,182.876,35.94,182.521,35.94z M182.507,45.041c-0.681,0-1.022-0.341-1.022-1.022
			v-5.796c0-0.681,0.341-1.022,1.022-1.022s1.022,0.341,1.022,1.022v2.898v2.898C183.529,44.7,183.188,45.041,182.507,45.041z"/>
		<path fill="#737373" d="M188.751,45.236c-1.717,0-2.576-0.98-2.576-2.94v-3.472h-0.35c-0.504,0-0.756-0.261-0.756-0.784
			c0-0.495,0.238-0.761,0.714-0.798l0.49-0.042l0.154-1.302c0.056-0.532,0.359-0.798,0.91-0.798c0.597,0,0.896,0.285,0.896,0.854
			v1.246h1.12c0.541,0,0.812,0.271,0.812,0.812c0,0.541-0.271,0.812-0.812,0.812h-1.12v1.736v1.736c0,0.877,0.354,1.316,1.064,1.316
			c0.009,0,0.019,0,0.028,0c0.485-0.112,0.789,0.089,0.91,0.602c0.103,0.485-0.047,0.784-0.448,0.896
			C189.433,45.194,189.087,45.236,188.751,45.236z"/>
		<path fill="#737373" d="M192.587,48.19c-0.168,0-0.29-0.005-0.364-0.014c-0.243-0.047-0.402-0.178-0.476-0.392
			c-0.075-0.187-0.08-0.416-0.014-0.686c0.046-0.178,0.126-0.317,0.238-0.42c0.122-0.122,0.266-0.164,0.434-0.126
			c0.009,0,0.019,0,0.028,0c0.718,0,1.208-0.397,1.47-1.19l0.14-0.462l-2.576-6.496c-0.327-0.802-0.061-1.204,0.798-1.204
			c0.532,0,0.886,0.257,1.064,0.77l0.98,2.87c0.103,0.317,0.252,0.808,0.448,1.47c0.093,0.327,0.163,0.574,0.21,0.742h0.07
			c0.065-0.243,0.161-0.611,0.287-1.106c0.126-0.494,0.217-0.863,0.273-1.106l0.854-2.87c0.149-0.513,0.49-0.77,1.022-0.77
			c0.793,0,1.054,0.373,0.784,1.12l-1.008,2.926l-1.386,4.032c-0.364,0.989-0.775,1.708-1.232,2.156
			C194.1,47.938,193.418,48.19,192.587,48.19z"/>
	</g>
</g>
<g>
</g>
<g>
</g>
<g>
</g>
<g>
</g>
<g>
</g>
<g>
</g>
<g>
</g>
<g>
</g>
<g>
</g>
<g>
</g>
<g>
</g>
<g>
</g>
<g>
</g>
<g>
</g>
<g>
</g>
</svg>
